<svg width="36" height="36" viewBox="0 0 36 36" fill="none" xmlns="http://www.w3.org/2000/svg">
<g clip-path="url(#clip0_63_460)">
<path d="M12.4744 7.72415C12.4744 6.25885 13.0565 4.85356 14.0926 3.81743C15.1287 2.78131 16.534 2.19922 17.9993 2.19922C19.4646 2.19922 20.8699 2.78131 21.906 3.81743C22.9421 4.85356 23.5242 6.25885 23.5242 7.72415C23.5242 9.18946 22.9421 10.5947 21.906 11.6309C20.8699 12.667 19.4646 13.2491 17.9993 13.2491C16.534 13.2491 15.1287 12.667 14.0926 11.6309C13.0565 10.5947 12.4744 9.18946 12.4744 7.72415ZM6.09945 5.59918C4.74686 5.59918 3.44967 6.13649 2.49325 7.09292C1.53683 8.04934 0.999512 9.34653 0.999512 10.6991C0.999512 12.0517 1.53683 13.3489 2.49325 14.3053C3.44967 15.2617 4.74686 15.7991 6.09945 15.7991C7.45204 15.7991 8.74923 15.2617 9.70565 14.3053C10.6621 13.3489 11.1994 12.0517 11.1994 10.6991C11.1994 9.34653 10.6621 8.04934 9.70565 7.09292C8.74923 6.13649 7.45204 5.59918 6.09945 5.59918ZM29.8992 5.59918C28.5466 5.59918 27.2494 6.13649 26.293 7.09292C25.3365 8.04934 24.7992 9.34653 24.7992 10.6991C24.7992 12.0517 25.3365 13.3489 26.293 14.3053C27.2494 15.2617 28.5466 15.7991 29.8992 15.7991C31.2517 15.7991 32.5489 15.2617 33.5054 14.3053C34.4618 13.3489 34.9991 12.0517 34.9991 10.6991C34.9991 9.34653 34.4618 8.04934 33.5054 7.09292C32.5489 6.13649 31.2517 5.59918 29.8992 5.59918ZM13.3244 15.7991C12.5354 15.7991 11.7787 16.1125 11.2207 16.6704C10.6628 17.2283 10.3494 17.985 10.3494 18.774V25.1489C10.3494 27.1778 11.1554 29.1236 12.59 30.5582C14.0246 31.9929 15.9704 32.7988 17.9993 32.7988C20.0282 32.7988 21.974 31.9929 23.4086 30.5582C24.8432 29.1236 25.6492 27.1778 25.6492 25.1489V18.774C25.6492 17.985 25.3358 17.2283 24.7779 16.6704C24.22 16.1125 23.4633 15.7991 22.6742 15.7991H13.3244ZM8.83642 17.4616C8.71289 17.8798 8.65055 18.3173 8.64942 18.774V25.1489C8.64803 26.5408 8.95797 27.9154 9.55655 29.1719C10.1551 30.4285 11.0272 31.5353 12.1089 32.4113C11.1196 32.7393 10.0737 32.8617 9.03546 32.771C7.99719 32.6802 6.9884 32.3783 6.071 31.8837C5.1536 31.3891 4.34694 30.7123 3.70052 29.8947C3.0541 29.0772 2.58156 28.1362 2.3119 27.1294L1.10151 22.6143C1.00021 22.2369 0.974242 21.8432 1.0251 21.4558C1.07596 21.0684 1.20265 20.6947 1.39793 20.3563C1.59321 20.0178 1.85325 19.7211 2.16321 19.4832C2.47316 19.2453 2.82696 19.0707 3.20438 18.9695L8.83642 17.4616ZM23.8897 32.4096C24.971 31.534 25.8428 30.4277 26.4413 29.1718C27.0399 27.9158 27.3501 26.5419 27.3492 25.1506V18.7757C27.3481 18.3156 27.2857 17.877 27.1622 17.4599L32.7959 18.9695C33.5578 19.1739 34.2073 19.6725 34.6017 20.3556C34.996 21.0388 35.1029 21.8506 34.8988 22.6126L33.6884 27.1294C33.4186 28.1362 32.9459 29.0772 32.2992 29.8947C31.6526 30.7122 30.8458 31.389 29.9282 31.8834C29.0106 32.3779 28.0017 32.6796 26.9633 32.7701C25.9249 32.8605 24.879 32.7379 23.8897 32.4096Z" fill="#4EA1F2" style="fill:#4EA1F2;fill:color(display-p3 0.3051 0.6306 0.9479);fill-opacity:1;"/>
</g>
<defs>
<clipPath id="clip0_63_460">
<rect width="35.8645" height="35.8645" fill="white" style="fill:white;fill-opacity:1;" transform="translate(0.135498)"/>
</clipPath>
</defs>
</svg>
