<svg width="36" height="36" viewBox="0 0 36 36" fill="none" xmlns="http://www.w3.org/2000/svg">
<path d="M9.38158 1.00069C10.3509 1.00069 11.3108 1.19162 12.2064 1.56258C13.102 1.93353 13.9157 2.47726 14.6011 3.1627C15.2866 3.84814 15.8303 4.66188 16.2013 5.55746C16.5722 6.45303 16.7632 7.4129 16.7632 8.38226V15.7638H9.38158C7.42387 15.7638 5.54633 14.9861 4.16202 13.6018C2.7777 12.2175 2 10.34 2 8.38226C2 6.42455 2.7777 4.54701 4.16202 3.1627C5.54633 1.77839 7.42387 1.00069 9.38158 1.00069ZM9.38158 19.2375H16.7632V26.6191C16.7632 28.079 16.3302 29.5062 15.5191 30.7201C14.708 31.934 13.5552 32.8801 12.2064 33.4388C10.8576 33.9975 9.37339 34.1437 7.94151 33.8588C6.50962 33.574 5.19435 32.871 4.16202 31.8387C3.12969 30.8063 2.42666 29.4911 2.14184 28.0592C1.85702 26.6273 2.0032 25.1431 2.56189 23.7943C3.12059 22.4455 4.0667 21.2926 5.2806 20.4815C6.49449 19.6704 7.92164 19.2375 9.38158 19.2375ZM20.2368 19.2375H27.6184C29.0784 19.2375 30.5055 19.6704 31.7194 20.4815C32.9333 21.2926 33.8794 22.4455 34.4381 23.7943C34.9968 25.1431 35.143 26.6273 34.8582 28.0592C34.5733 29.4911 33.8703 30.8063 32.838 31.8387C31.8057 32.871 30.4904 33.574 29.0585 33.8588C27.6266 34.1437 26.1424 33.9975 24.7936 33.4388C23.4448 32.8801 22.292 31.934 21.4809 30.7201C20.6698 29.5062 20.2368 28.079 20.2368 26.6191V19.2375ZM28.9349 14.1486L28.4799 15.1907C28.1464 15.9549 27.0904 15.9549 26.7569 15.1907L26.3019 14.1486C25.5042 12.3012 24.0429 10.8201 22.2064 9.99753L20.8048 9.37226C20.6354 9.29391 20.4919 9.1687 20.3914 9.01143C20.2908 8.85416 20.2374 8.6714 20.2374 8.48474C20.2374 8.29808 20.2908 8.11531 20.3914 7.95804C20.4919 7.80077 20.6354 7.67556 20.8048 7.59721L22.1283 7.00669C24.0114 6.16149 25.4984 4.62596 26.2828 2.71669L26.75 1.58948C26.8191 1.41556 26.9388 1.26639 27.0936 1.16129C27.2485 1.05619 27.4313 1 27.6184 1C27.8056 1 27.9884 1.05619 28.1432 1.16129C28.2981 1.26639 28.4178 1.41556 28.4868 1.58948L28.9541 2.71842C29.7384 4.6277 31.2254 6.16323 33.1086 7.00842L34.4321 7.59721C34.6015 7.67556 34.7449 7.80077 34.8455 7.95804C34.946 8.11531 34.9994 8.29808 34.9994 8.48474C34.9994 8.6714 34.946 8.85416 34.8455 9.01143C34.7449 9.1687 34.6015 9.29391 34.4321 9.37226L33.0304 9.99753C31.194 10.8201 29.7327 12.3012 28.9349 14.1486Z" fill="#4EA1F2" style="fill:#4EA1F2;fill:color(display-p3 0.3051 0.6306 0.9479);fill-opacity:1;"/>
</svg>
