<svg width="36" height="36" viewBox="0 0 36 36" fill="none" xmlns="http://www.w3.org/2000/svg">
<g clip-path="url(#clip0_63_445)">
<path d="M18.0677 0C8.205 0 0.135498 8.0695 0.135498 17.9322C0.135498 27.795 8.205 35.8645 18.0677 35.8645C22.9991 35.8645 27.5718 33.9367 30.7996 30.6641L27.5718 27.4363C25.151 29.8572 21.7887 31.3814 18.0229 31.3814C10.581 31.3814 4.57372 25.3741 4.57372 17.9322C4.57372 10.4904 10.581 4.48306 18.0229 4.48306C21.7438 4.48306 24.9716 6.09696 27.3925 8.56264L22.5059 13.4492H35.9551V0L30.6203 5.33484C27.3925 2.10704 22.9543 0 18.0229 0H18.0677Z" fill="#4EA1F2" style="fill:#4EA1F2;fill:color(display-p3 0.3051 0.6306 0.9479);fill-opacity:1;"/>
</g>
<defs>
<clipPath id="clip0_63_445">
<rect width="35.8645" height="35.8645" fill="white" style="fill:white;fill-opacity:1;" transform="translate(0.135498)"/>
</clipPath>
</defs>
</svg>
